<?xml version="1.0" encoding="UTF-8" standalone="no"?>
<!-- Created with Inkscape (http://www.inkscape.org/) -->

<svg
   width="24.000011mm"
   height="24.000063mm"
   viewBox="0 0 24.000011 24.000063"
   version="1.1"
   id="svg1"
   xml:space="preserve"
   xmlns:inkscape="http://www.inkscape.org/namespaces/inkscape"
   xmlns:sodipodi="http://sodipodi.sourceforge.net/DTD/sodipodi-0.dtd"
   xmlns="http://www.w3.org/2000/svg"
   xmlns:svg="http://www.w3.org/2000/svg"><sodipodi:namedview
     id="namedview1"
     pagecolor="#ffffff"
     bordercolor="#000000"
     borderopacity="0.25"
     inkscape:showpageshadow="2"
     inkscape:pageopacity="0.0"
     inkscape:pagecheckerboard="0"
     inkscape:deskcolor="#d1d1d1"
     inkscape:document-units="mm"
     inkscape:zoom="3.7130752"
     inkscape:cx="412.73067"
     inkscape:cy="267.43331"
     inkscape:window-width="1955"
     inkscape:window-height="1274"
     inkscape:window-x="570"
     inkscape:window-y="301"
     inkscape:window-maximized="0"
     inkscape:current-layer="layer1" /><defs
     id="defs1" /><g
     inkscape:label="Layer 1"
     inkscape:groupmode="layer"
     id="layer1"
     transform="translate(-110.82783,-46.936782)"><path
       style="fill:#000000;stroke-width:0.179683"
       d="m 119.06991,70.925387 c -0.2283,-0.0456 -1.20537,-0.46178 -1.75554,-0.7478 -2.88601,-1.50034 -5.16577,-4.3469 -6.05768,-7.56377 -0.30917,-1.11511 -0.42773,-2.0526 -0.42884,-3.39103 -9.1e-4,-1.09848 0.0444,-1.58814 0.23529,-2.54173 0.88874,-4.43999 4.25496,-8.10975 8.54223,-9.31253 2.4501,-0.68737 5.25275,-0.54809 7.5609,0.37574 2.81092,1.12506 5.07249,3.23535 6.42536,5.99553 0.61818,1.26123 0.99225,2.52569 1.18094,3.9919 0.0741,0.57567 0.0736,2.37837 -8.9e-4,2.98218 -0.23506,1.90732 -0.85103,3.64566 -1.83796,5.18691 -1.42488,2.22518 -3.35753,3.84796 -5.71126,4.79555 -0.72622,0.29237 -0.9862,0.30956 -1.21057,0.08 l -0.15211,-0.15562 -0.0285,-2.17568 c -0.0305,-2.32867 -0.0422,-2.45058 -0.29163,-3.02386 -0.0618,-0.14196 -0.19874,-0.36944 -0.3044,-0.50552 l -0.19211,-0.24741 0.38481,-0.0551 c 1.23015,-0.17624 2.18844,-0.52137 3.01528,-1.08594 1.00554,-0.68658 1.62512,-1.7521 1.92957,-3.31836 0.10019,-0.51541 0.14344,-1.96227 0.0725,-2.42598 -0.1209,-0.7906 -0.50301,-1.66722 -0.98195,-2.25278 l -0.18869,-0.2307 0.11551,-0.4072 c 0.20508,-0.72295 0.15041,-1.73676 -0.13806,-2.56018 -0.0915,-0.2613 -0.12104,-0.29914 -0.26217,-0.33638 -0.43665,-0.11523 -1.67585,0.34966 -2.75022,1.03176 -0.26764,0.16992 -0.41089,0.23284 -0.49568,0.21773 -0.0656,-0.0117 -0.33364,-0.0675 -0.59567,-0.12403 -1.4988,-0.32335 -3.14009,-0.32335 -4.63889,0 -0.26202,0.0565 -0.53133,0.11253 -0.59847,0.12445 -0.088,0.0156 -0.21511,-0.0394 -0.45543,-0.19706 -0.95811,-0.62865 -2.31466,-1.13693 -2.81329,-1.0541 -0.15143,0.0252 -0.16228,0.0417 -0.27443,0.41805 -0.18186,0.61033 -0.22793,0.92235 -0.22433,1.51942 0.003,0.44331 0.0267,0.6337 0.12108,0.95886 l 0.11774,0.40572 -0.18087,0.21958 c -0.47459,0.57614 -0.86843,1.47891 -0.98893,2.26686 -0.071,0.46438 -0.0276,1.91154 0.0728,2.42548 0.24073,1.23261 0.70767,2.21315 1.35862,2.853 0.48927,0.48092 1.2783,0.94769 2.04993,1.21267 0.33537,0.11517 1.23239,0.30988 1.65493,0.35922 l 0.26875,0.0314 -0.18299,0.23697 c -0.23772,0.30785 -0.40949,0.68452 -0.50071,1.09798 -0.0714,0.32367 -0.0782,0.33391 -0.26895,0.40623 -0.42069,0.15949 -0.64065,0.19483 -1.22947,0.19751 -0.60321,0.003 -0.61483,7.3e-4 -0.92886,-0.16056 -0.40667,-0.20888 -0.75835,-0.55625 -1.08029,-1.06702 -0.46632,-0.73985 -1.17474,-1.26108 -1.80169,-1.32565 -0.36071,-0.0371 -0.62963,0.0424 -0.62963,0.18614 0,0.10952 0.37754,0.50074 0.71018,0.7359 0.11336,0.0801 0.31821,0.29659 0.45522,0.481 0.22345,0.30075 0.33605,0.51294 0.74843,1.41038 0.22607,0.49199 0.79422,0.94491 1.4224,1.13393 0.14214,0.0428 0.55447,0.10204 0.91629,0.13172 0.53746,0.0441 0.74168,0.0413 1.11599,-0.0152 l 0.45814,-0.0692 0.0116,0.84393 c 0.0233,1.69661 0.013,1.78753 -0.22091,1.94438 -0.12366,0.0829 -0.37522,0.12578 -0.54249,0.0924 z"
       id="path2" /></g></svg>
