<?xml version="1.0" encoding="UTF-8" standalone="no"?>
<!-- Created with Inkscape (http://www.inkscape.org/) -->

<svg
   width="23.999956mm"
   height="23.999996mm"
   viewBox="0 0 23.999956 23.999996"
   version="1.1"
   id="svg1"
   xml:space="preserve"
   xmlns:inkscape="http://www.inkscape.org/namespaces/inkscape"
   xmlns:sodipodi="http://sodipodi.sourceforge.net/DTD/sodipodi-0.dtd"
   xmlns="http://www.w3.org/2000/svg"
   xmlns:svg="http://www.w3.org/2000/svg"><sodipodi:namedview
     id="namedview1"
     pagecolor="#ffffff"
     bordercolor="#000000"
     borderopacity="0.25"
     inkscape:showpageshadow="2"
     inkscape:pageopacity="0.0"
     inkscape:pagecheckerboard="0"
     inkscape:deskcolor="#d1d1d1"
     inkscape:document-units="mm"
     inkscape:zoom="3.7130752"
     inkscape:cx="412.73067"
     inkscape:cy="267.43331"
     inkscape:window-width="1955"
     inkscape:window-height="1274"
     inkscape:window-x="570"
     inkscape:window-y="301"
     inkscape:window-maximized="0"
     inkscape:current-layer="layer1" /><defs
     id="defs1" /><g
     inkscape:label="Layer 1"
     inkscape:groupmode="layer"
     id="layer1"
     transform="translate(-78.674051,-47.761862)"><path
       style="fill:#0274b3;fill-opacity:1;stroke-width:0.300905"
       d="m 80.004006,71.715025 c -0.633407,-0.166389 -1.128278,-0.654408 -1.284077,-1.266295 -0.04059,-0.159415 -0.04588,-1.390635 -0.04588,-10.675832 0,-6.974708 0.01029,-10.550266 0.03068,-10.658487 0.05032,-0.267061 0.219122,-0.583317 0.426819,-0.799662 0.21906,-0.228183 0.387736,-0.342324 0.676768,-0.457957 l 0.210799,-0.08434 10.558295,-0.0079 c 9.40936,-0.0069 10.58009,-0.0027 10.75862,0.03866 0.49473,0.114764 0.94107,0.463181 1.15738,0.903466 0.0661,0.134636 0.13377,0.318077 0.1503,0.407645 0.0195,0.105881 0.03,3.834653 0.03,10.658487 0,11.580627 0.0161,10.638973 -0.18945,11.052545 -0.14073,0.283067 -0.45775,0.595035 -0.74756,0.735643 -0.45333,0.219934 0.55257,0.201808 -11.076746,0.199602 -9.043583,-0.0018 -10.51266,-0.008 -10.655985,-0.04566 z m 5.788342,-9.23401 V 56.75178 l -1.79091,-0.0078 -1.79091,-0.0078 v 5.744832 5.744829 l 1.79091,-0.0078 1.79091,-0.0078 z m 5.788339,2.783121 c 0,-3.490419 0.01493,-3.777342 0.228564,-4.394746 0.307673,-0.889153 1.042774,-1.321717 2.113973,-1.243953 0.855263,0.06209 1.319451,0.51549 1.546129,1.510193 0.05105,0.224017 0.05627,0.493994 0.07061,3.658244 l 0.01549,3.416375 1.806021,0.0078 1.806025,0.0078 v -3.475565 c 0,-2.816377 -0.0086,-3.577638 -0.045,-4.013725 -0.09586,-1.146463 -0.30903,-1.949695 -0.689913,-2.599528 -0.647785,-1.105205 -1.831523,-1.672418 -3.496778,-1.675548 -0.863097,-0.0015 -1.528702,0.169553 -2.197783,0.565221 -0.456022,0.269672 -0.94876,0.745387 -1.163578,1.123385 -0.04961,0.0873 -0.10251,0.158724 -0.117548,0.158724 -0.01562,0 -0.02735,-0.337583 -0.02735,-0.786318 v -0.786319 l -1.715344,0.0078 -1.715344,0.0078 -0.0078,5.699002 c -0.0043,3.13445 -0.0012,5.716007 0.0066,5.736792 0.01128,0.02965 0.399035,0.03779 1.798664,0.03779 h 1.784301 z M 84.514573,55.132545 c 0.851217,-0.217384 1.452234,-0.908118 1.56513,-1.798759 0.127488,-1.005749 -0.583944,-2.001472 -1.606332,-2.248231 -0.328427,-0.07927 -0.604909,-0.07959 -0.932885,-0.0012 -0.35989,0.08614 -0.655562,0.240752 -0.908692,0.475165 -0.538817,0.49898 -0.764188,1.08645 -0.69002,1.798662 0.05057,0.485609 0.236046,0.862896 0.605985,1.232665 0.518428,0.51819 1.259442,0.722236 1.966814,0.541588 z"
       id="path1" /></g></svg>
